PathFileType	4	(X/Y/Z)	13_coords_data.trc
DataRate	CameraRate	NumFrames	NumMarkers	Units	OrigDataRate	OrigDataStartFrame	OrigNumFrames
30.0	30.0	6	21	m	30.0	52	62
Frame#	Time	THUMB_TIP	THUMB_IP	THUMB_MCP	THUMB_CMC	INDEX_TIP	INDEX_DIP	INDEX_PIP	INDEX_MCP	MIDDLE_TIP	MIDDLE_DIP	MIDDLE_PIP	MIDDLE_MCP	RING_TIP	RING_DIP	RING_PIP	RING_MCP	PINKY_TIP	PINKY_DIP	PINKY_PIP	PINKY_MCP	WRIST
X1	Y1	Z1	X2	Y2	Z2	X3	Y3	Z3	X4	Y4	Z4	X5	Y5	Z5	X6	Y6	Z6	X7	Y7	Z7	X8	Y8	Z8	X9	Y9	Z9	X10	Y10	Z10	X11	Y11	Z11	X12	Y12	Z12	X13	Y13	Z13	X14	Y14	Z14	X15	Y15	Z15	X16	Y16	Z16	X17	Y17	Z17	X18	Y18	Z18	X19	Y19	Z19	X20	Y20	Z20	X21	Y21	Z21
50	1.6999999999999926	0.5532680725078605	0.03689299300538207	-0.10485821490143407	0.5359082314730793	0.03021565356632311	-0.091365659277583	0.5120783777698028	0.024963394599205713	-0.07204282697424871	0.4787659105893334	-0.0040213279620615605	-0.06571389433149569	0.6010520270904807	-0.024368222601699463	-0.13130591958437987	0.5943315940338738	-0.025270399852944547	-0.11451241322808248	0.5805807395677781	-0.024095195687371507	-0.09349949506754421	0.5435347329952317	-0.015429489620149672	-0.07436483987380313	0.6027921713940202	-0.06560439065912449	-0.1346622404503332	0.5918485423313432	-0.06306283980745836	-0.12045739964844726	0.5734239433313877	-0.056457928854160594	-0.09886298247664446	0.5377347501573161	-0.03898832881211922	-0.0784364681887171	0.5821068370957009	-0.07652196097254546	-0.14317140307014184	0.5714417762731456	-0.07570837511629569	-0.12865952670263822	0.5560572041965913	-0.07214133988851598	-0.10940410718747087	0.5258273095208711	-0.0542077199752069	-0.08942262629390782	0.5288555906024769	-0.086422227830076	-0.16393008632768044	0.5234668563829779	-0.08248785243350798	-0.148166767078535	0.5172971252508466	-0.07634565568984589	-0.12906127425789943	0.505147470939255	-0.06056346597571857	-0.09899149143633379	0.462283081001861	-0.023011742144276925	-0.05198982011943096
51	1.7333333333333258	0.552866316521487	0.036569855700029796	-0.10561324956638637	0.5356317361489401	0.030104790144664384	-0.09185926226280586	0.5119124103544801	0.025015803725965013	-0.07235757512844335	0.4787198940770587	-0.004060801359001998	-0.06582321212153985	0.6010801482641541	-0.024184657754056316	-0.13111200243679752	0.5943923408389846	-0.025077844063834454	-0.11430499645536604	0.580655655177439	-0.023915168630443517	-0.09328211639880676	0.5435537910621792	-0.015277469693997847	-0.07424326322283742	0.6032225911648106	-0.06557729389598069	-0.13402908645467235	0.5922141113963783	-0.0629968809644311	-0.11988147738844832	0.5736699371500463	-0.056320963671384616	-0.0984116082733818	0.5378264977858178	-0.03885385317964979	-0.07825482711635168	0.5823387901505243	-0.07631974457835541	-0.1429343445051831	0.5716876111533775	-0.07552675455361896	-0.1284111371186789	0.5562688448559335	-0.07200066170719677	-0.10917553746326861	0.5259708006462465	-0.05409684482062216	-0.0892706965455457	0.5288635967768415	-0.08554376532225655	-0.16417894749017636	0.5235263484758389	-0.08181196756676784	-0.1483489927812843	0.5174289926522164	-0.07592482316661542	-0.12914024993403136	0.505329296342136	-0.06053520726088493	-0.09884766796289662	0.4622830810018609	-0.023011742144276925	-0.05198982011943101
52	1.7666666666666588	0.552528125967239	0.03629839663876916	-0.10622239477384882	0.5354093665158586	0.030006035439583245	-0.09224547575051781	0.5117789639977754	0.02505175219414263	-0.07260166872750617	0.4786739082249605	-0.004090609224090658	-0.06591825244181163	0.6011300080181892	-0.024109954329343153	-0.13095611870135504	0.5944495894288615	-0.024994390564731017	-0.11414571180512259	0.5807187604766394	-0.023827782642763806	-0.09311922386154955	0.5435670551401626	-0.015207017014285673	-0.07417010027837403	0.6035786238360454	-0.06570435250322146	-0.13345770859335135	0.5925134679494435	-0.0630680628258487	-0.11936472090648464	0.5738452944301737	-0.05629478215171582	-0.09803325315661193	0.53788672768605	-0.03877554424942481	-0.07812833662748953	0.5825134395752405	-0.07625756541184589	-0.1427156712714496	0.5718591327973748	-0.07546878957142694	-0.12819452876279355	0.5564078478252968	-0.07195552249438633	-0.1089826905853305	0.526067700955621	-0.05404666499544836	-0.08914663389532168	0.5287586037305926	-0.08475132584024772	-0.1644410099427311	0.5234550635831245	-0.08121006471110698	-0.1485560506566822	0.5174759398066102	-0.07556118738708945	-0.12923890068979213	0.5054493149193127	-0.060540782477779304	-0.09873265245798543	0.4622830810018609	-0.023011742144276925	-0.051989820119430985
54	1.8000000000000007	0.5522259671952112	0.036123329600034615	-0.1067418182426364	0.5352048961049616	0.029949058487599323	-0.09259397334771285	0.5116568852653278	0.02508023612073912	-0.07283022486073659	0.4786139750625019	-0.00409834081141458	-0.06599891945529832	0.6010682092295991	-0.02400292867511139	-0.1309879349524615	0.5944230110308212	-0.02489202784916833	-0.11416382001117409	0.5807214712836061	-0.02373553671009826	-0.09311767618859376	0.5435555565964931	-0.015135571179486718	-0.07418697434363988	0.6038012126530016	-0.06578695682483454	-0.13313247308184753	0.5927001869201216	-0.06310398183582444	-0.11907655358555402	0.5739496064119671	-0.056252233937729046	-0.09784264600008671	0.5379062913825414	-0.03871292266366255	-0.07810942723778189	0.5825632899368738	-0.07617855743930357	-0.1426771462611136	0.5719273821969866	-0.07540113499130996	-0.12814191042243633	0.5564589962067996	-0.07190575541899616	-0.10894057360689036	0.5260979209559962	-0.05400100500084598	-0.08913285147437819	0.5285227851083723	-0.08398812134121653	-0.16476687140802437	0.5232866130345577	-0.0806358328515984	-0.1488186845551004	0.5174202595985985	-0.0752252877326064	-0.12939900593057724	0.5054893103850265	-0.06055114846476292	-0.09868735441830742	0.4622830810018609	-0.023011742144276925	-0.05198982011943096
55	1.833333333333334	0.5521032417732215	0.03588925200500637	-0.10706875605908442	0.5351370614071795	0.029822206405860086	-0.0928090337095851	0.511631835720594	0.025040533463362546	-0.07297320830972673	0.47858458844158747	-0.004111721294214443	-0.06605110676254242	0.6009718375151594	-0.02399291325823205	-0.1310808057797517	0.5943648238421828	-0.024901800362043758	-0.11424271519448564	0.5807019186193166	-0.023766188385498266	-0.09317033423480997	0.5435504557680775	-0.015159780372409226	-0.07421421007597284	0.6038566538199162	-0.0658594762695375	-0.13305207980840508	0.5927514163658231	-0.06315976392790848	-0.11900269354562965	0.5739686929105434	-0.05627265315469651	-0.09780867186969475	0.5378937056055594	-0.03873280519876143	-0.07813389243947155	0.5825062568902584	-0.07611143521638264	-0.14276717680685796	0.571899336247094	-0.07535892132970043	-0.12820946554031734	0.5564235980430665	-0.0718967524771306	-0.10900803609153145	0.5260715669905215	-0.05400443624606405	-0.08917523334272998	0.5282491552070234	-0.08330499036931524	-0.1650970711525349	0.5230741692100512	-0.08013111955621527	-0.1490925073036544	0.5173112518879284	-0.07494016294700878	-0.12958213128422022	0.5054642406069537	-0.06057186467376924	-0.09869388466127832	0.462283081001861	-0.023011742144276925	-0.05198982011943101
56	1.8666666666666674	0.5522530526502497	0.03555883424831391	-0.10710296103424852	0.5352796034208047	0.029589225578473433	-0.09281080256939714	0.5117602293087851	0.02490176944834277	-0.07296926038117602	0.47860764641337716	-0.004131555210699578	-0.06605100145238788	0.600837888611323	-0.024136794526774086	-0.13123320043118542	0.5942718412169081	-0.02509226925549668	-0.11438166965036106	0.5806599380487618	-0.02399622309095456	-0.09327421580234335	0.5435602538726358	-0.01533777877414505	-0.07424053854217033	0.6036704966973165	-0.0659367971236019	-0.13331572600139338	0.5926046455263478	-0.06326505964569384	-0.1192299616731394	0.5738623313886516	-0.05640535538811978	-0.09799132545838846	0.5378340472401146	-0.03888354818817158	-0.07821515457623507	0.5822764937760787	-0.07606140966783809	-0.14305948607100144	0.5717144456819383	-0.07535686607410669	-0.1284667906934642	0.5562517162439963	-0.07195451754626664	-0.10924419976965508	0.5259595489275785	-0.05408267222150376	-0.08930171802936232	0.5278984849933882	-0.08269950503200948	-0.16547176976725092	0.5227778043910876	-0.07969543711556476	-0.1494170444154236	0.5171078964816762	-0.07470478275054859	-0.1298273141388797	0.5053366756596858	-0.06059977238356906	-0.09878910391490994	0.4622830810018609	-0.023011742144276925	-0.05198982011943096
